<mxfile>
  <diagram name="AWS Architecture">
    <mxGraphModel>
      <root>
        <mxCell id="0"/>
        <mxCell id="1" parent="0"/>
        <mxCell id="2" value="Internet" style="shape=cloud;" parent="1" vertex="1">
          <mxGeometry x="240" y="40" width="120" height="80" as="geometry"/>
        </mxCell>
        <mxCell id="3" value="Application Load Balancer" style="shape=aws3_application_load_balancer;" parent="1" vertex="1">
          <mxGeometry x="200" y="160" width="120" height="120" as="geometry"/>
        </mxCell>
        <mxCell id="4" value="EKS Cluster" style="shape=aws3_eks;" parent="1" vertex="1">
          <mxGeometry x="40" y="320" width="480" height="240" as="geometry"/>
        </mxCell>
        <mxCell id="5" value="RDS PostgreSQL" style="shape=aws3_rds;" parent="1" vertex="1">
          <mxGeometry x="560" y="320" width="120" height="120" as="geometry"/>
        </mxCell>
      </root>
    </mxGraphModel>
  </diagram>
</mxfile>
